{
    "asset" : {
        "generator" : "Khronos glTF Blender I/O v1.5.17",
        "version" : "2.0"
    },
    "extensionsUsed" : [
        "KHR_materials_clearcoat",
        "KHR_materials_transmission"
    ],
    "scene" : 0,
    "scenes" : [
        {
            "name" : "Scene",
            "nodes" : [
                0
            ]
        }
    ],
    "nodes" : [
        {
            "mesh" : 0,
            "name" : "Cube",
            "scale" : [
                9.704842567443848,
                0.4425673484802246,
                7.122031211853027
            ]
        }
    ],
    "materials" : [
        {
            "doubleSided" : true,
            "extensions" : {
                "KHR_materials_clearcoat" : {
                    "clearcoatFactor" : 0.7599999904632568,
                    "clearcoatRoughnessFactor" : 0.3936363756656647
                }
            },
            "name" : "Material",
            "pbrMetallicRoughness" : {
                "baseColorTexture" : {
                    "index" : 0
                },
                "metallicFactor" : 0.5054545998573303,
                "roughnessFactor" : 0.07090908288955688
            }
        },
        {
            "doubleSided" : true,
            "extensions" : {
                "KHR_materials_transmission" : {
                    "transmissionFactor" : 1
                }
            },
            "name" : "Glass",
            "pbrMetallicRoughness" : {
                "baseColorFactor" : [
                    0.800000011920929,
                    0.800000011920929,
                    0.800000011920929,
                    1
                ],
                "metallicFactor" : 0,
                "roughnessFactor" : 0.1090909093618393
            }
        }
    ],
    "meshes" : [
        {
            "name" : "Cube",
            "primitives" : [
                {
                    "attributes" : {
                        "POSITION" : 0,
                        "NORMAL" : 1,
                        "TEXCOORD_0" : 2
                    },
                    "indices" : 3,
                    "material" : 0
                },
                {
                    "attributes" : {
                        "POSITION" : 4,
                        "NORMAL" : 5,
                        "TEXCOORD_0" : 6
                    },
                    "indices" : 7,
                    "material" : 1
                }
            ]
        }
    ],
    "textures" : [
        {
            "sampler" : 0,
            "source" : 0
        }
    ],
    "images" : [
        {
            "bufferView" : 4,
            "mimeType" : "image/png",
            "name" : "Palette"
        }
    ],
    "accessors" : [
        {
            "bufferView" : 0,
            "componentType" : 5126,
            "count" : 14732,
            "max" : [
                1.5026036500930786,
                9.122596740722656,
                1.6406803131103516
            ],
            "min" : [
                -1.5026036500930786,
                -3.4787051677703857,
                -1.6406803131103516
            ],
            "type" : "VEC3"
        },
        {
            "bufferView" : 1,
            "componentType" : 5126,
            "count" : 14732,
            "type" : "VEC3"
        },
        {
            "bufferView" : 2,
            "componentType" : 5126,
            "count" : 14732,
            "type" : "VEC2"
        },
        {
            "bufferView" : 3,
            "componentType" : 5123,
            "count" : 23736,
            "type" : "SCALAR"
        },
        {
            "bufferView" : 5,
            "componentType" : 5126,
            "count" : 248,
            "max" : [
                1.0263965129852295,
                3.797184467315674,
                1.042679786682129
            ],
            "min" : [
                -1.0102009773254395,
                -1,
                -1.042679786682129
            ],
            "type" : "VEC3"
        },
        {
            "bufferView" : 6,
            "componentType" : 5126,
            "count" : 248,
            "type" : "VEC3"
        },
        {
            "bufferView" : 7,
            "componentType" : 5126,
            "count" : 248,
            "type" : "VEC2"
        },
        {
            "bufferView" : 8,
            "componentType" : 5123,
            "count" : 468,
            "type" : "SCALAR"
        }
    ],
    "bufferViews" : [
        {
            "buffer" : 0,
            "byteLength" : 176784,
            "byteOffset" : 0
        },
        {
            "buffer" : 0,
            "byteLength" : 176784,
            "byteOffset" : 176784
        },
        {
            "buffer" : 0,
            "byteLength" : 117856,
            "byteOffset" : 353568
        },
        {
            "buffer" : 0,
            "byteLength" : 47472,
            "byteOffset" : 471424
        },
        {
            "buffer" : 0,
            "byteLength" : 4096,
            "byteOffset" : 518896
        },
        {
            "buffer" : 0,
            "byteLength" : 2976,
            "byteOffset" : 522992
        },
        {
            "buffer" : 0,
            "byteLength" : 2976,
            "byteOffset" : 525968
        },
        {
            "buffer" : 0,
            "byteLength" : 1984,
            "byteOffset" : 528944
        },
        {
            "buffer" : 0,
            "byteLength" : 936,
            "byteOffset" : 530928
        }
    ],
    "samplers" : [
        {
            "magFilter" : 9729,
            "minFilter" : 9987
        }
    ],
    "buffers" : [
        {
            "byteLength" : 531864,
            "uri" : "data:application/octet-stream;base64,"
        }
    ]
}
