{
    "asset" : {
        "generator" : "Khronos glTF Blender I/O v1.5.17",
        "version" : "2.0"
    },
    "extensionsUsed" : [
        "KHR_materials_transmission"
    ],
    "scene" : 0,
    "scenes" : [
        {
            "name" : "Scene",
            "nodes" : [
                0,
                1,
                2,
                3,
                4,
                5,
                6
            ]
        }
    ],
    "nodes" : [
        {
            "mesh" : 0,
            "name" : "UFO"
        },
        {
            "name" : "Light",
            "rotation" : [
                0.16907575726509094,
                0.7558803558349609,
                -0.27217137813568115,
                0.570947527885437
            ],
            "translation" : [
                4.076245307922363,
                5.903861999511719,
                -1.0054539442062378
            ]
        },
        {
            "name" : "Camera",
            "rotation" : [
                0.483536034822464,
                0.33687159419059753,
                -0.20870360732078552,
                0.7804827094078064
            ],
            "translation" : [
                7.358891487121582,
                4.958309173583984,
                6.925790786743164
            ]
        },
        {
            "mesh" : 1,
            "name" : "Chair",
            "scale" : [
                0.26198604702949524,
                0.033115796744823456,
                0.26198604702949524
            ],
            "translation" : [
                -0.30938705801963806,
                0,
                0
            ]
        },
        {
            "mesh" : 2,
            "name" : "Console",
            "scale" : [
                0.26198604702949524,
                0.033115796744823456,
                0.26198604702949524
            ],
            "translation" : [
                -0.3196703791618347,
                0,
                0
            ]
        },
        {
            "mesh" : 3,
            "name" : "Cube",
            "scale" : [
                0.18270182609558105,
                0.8113352060317993,
                2.6292314529418945
            ],
            "translation" : [
                2.876091241836548,
                0,
                0
            ]
        },
        {
            "mesh" : 4,
            "name" : "Cube.001",
            "scale" : [
                -0.2961869239807129,
                -0.10713011771440506,
                -0.12921640276908875
            ],
            "translation" : [
                2.424097776412964,
                -0.14648215472698212,
                0.011691857129335403
            ]
        }
    ],
    "materials" : [
        {
            "doubleSided" : true,
            "name" : "Material",
            "pbrMetallicRoughness" : {
                "baseColorFactor" : [
                    0.048171818256378174,
                    0.02732088789343834,
                    0.3813261389732361,
                    1
                ],
                "metallicFactor" : 0.6294963955879211,
                "roughnessFactor" : 0.37050360441207886
            }
        },
        {
            "doubleSided" : true,
            "extensions" : {
                "KHR_materials_transmission" : {
                    "transmissionFactor" : 1
                }
            },
            "name" : "Glass",
            "pbrMetallicRoughness" : {
                "baseColorFactor" : [
                    0.800000011920929,
                    0.800000011920929,
                    0.800000011920929,
                    0.16988879442214966
                ],
                "metallicFactor" : 0,
                "roughnessFactor" : 0
            }
        },
        {
            "doubleSided" : true,
            "name" : "chair",
            "pbrMetallicRoughness" : {
                "baseColorTexture" : {
                    "index" : 0
                },
                "metallicFactor" : 0,
                "roughnessFactor" : 0.5
            }
        }
    ],
    "meshes" : [
        {
            "name" : "Cube",
            "primitives" : [
                {
                    "attributes" : {
                        "POSITION" : 0,
                        "NORMAL" : 1,
                        "TEXCOORD_0" : 2
                    },
                    "indices" : 3,
                    "material" : 0
                },
                {
                    "attributes" : {
                        "POSITION" : 4,
                        "NORMAL" : 5,
                        "TEXCOORD_0" : 6
                    },
                    "indices" : 7,
                    "material" : 1
                }
            ]
        },
        {
            "name" : "Cube.002",
            "primitives" : [
                {
                    "attributes" : {
                        "POSITION" : 8,
                        "NORMAL" : 9,
                        "TEXCOORD_0" : 10
                    },
                    "indices" : 11,
                    "material" : 2
                }
            ]
        },
        {
            "name" : "Cube.003",
            "primitives" : [
                {
                    "attributes" : {
                        "POSITION" : 12,
                        "NORMAL" : 13,
                        "TEXCOORD_0" : 14
                    },
                    "indices" : 15,
                    "material" : 2
                }
            ]
        },
        {
            "name" : "Cube.004",
            "primitives" : [
                {
                    "attributes" : {
                        "POSITION" : 16,
                        "NORMAL" : 17,
                        "TEXCOORD_0" : 18
                    },
                    "indices" : 19
                }
            ]
        },
        {
            "name" : "Cube.001",
            "primitives" : [
                {
                    "attributes" : {
                        "POSITION" : 20,
                        "NORMAL" : 21,
                        "TEXCOORD_0" : 22
                    },
                    "indices" : 23
                }
            ]
        }
    ],
    "textures" : [
        {
            "sampler" : 0,
            "source" : 0
        }
    ],
    "images" : [
        {
            "bufferView" : 12,
            "mimeType" : "image/png",
            "name" : "Console"
        }
    ],
    "accessors" : [
        {
            "bufferView" : 0,
            "componentType" : 5126,
            "count" : 228,
            "max" : [
                2.4499902725219727,
                0.2380180060863495,
                2.4499902725219727
            ],
            "min" : [
                -2.4499902725219727,
                -0.46042799949645996,
                -2.4499902725219727
            ],
            "type" : "VEC3"
        },
        {
            "bufferView" : 1,
            "componentType" : 5126,
            "count" : 228,
            "type" : "VEC3"
        },
        {
            "bufferView" : 2,
            "componentType" : 5126,
            "count" : 228,
            "type" : "VEC2"
        },
        {
            "bufferView" : 3,
            "componentType" : 5123,
            "count" : 324,
            "type" : "SCALAR"
        },
        {
            "bufferView" : 4,
            "componentType" : 5126,
            "count" : 512,
            "max" : [
                0.9492318630218506,
                1.7898887395858765,
                0.8491278886795044
            ],
            "min" : [
                -0.8456467390060425,
                0.23998427391052246,
                -0.9457505941390991
            ],
            "type" : "VEC3"
        },
        {
            "bufferView" : 5,
            "componentType" : 5126,
            "count" : 512,
            "type" : "VEC3"
        },
        {
            "bufferView" : 6,
            "componentType" : 5126,
            "count" : 512,
            "type" : "VEC2"
        },
        {
            "bufferView" : 7,
            "componentType" : 5123,
            "count" : 756,
            "type" : "SCALAR"
        },
        {
            "bufferView" : 8,
            "componentType" : 5126,
            "count" : 324,
            "max" : [
                1.6365164518356323,
                29.374425888061523,
                1.4379620552062988
            ],
            "min" : [
                -0.775680661201477,
                -3.009320020675659,
                -1.4379620552062988
            ],
            "type" : "VEC3"
        },
        {
            "bufferView" : 9,
            "componentType" : 5126,
            "count" : 324,
            "type" : "VEC3"
        },
        {
            "bufferView" : 10,
            "componentType" : 5126,
            "count" : 324,
            "type" : "VEC2"
        },
        {
            "bufferView" : 11,
            "componentType" : 5123,
            "count" : 636,
            "type" : "SCALAR"
        },
        {
            "bufferView" : 13,
            "componentType" : 5126,
            "count" : 1064,
            "max" : [
                3.997370958328247,
                13.306761741638184,
                1.0139542818069458
            ],
            "min" : [
                2.0973215103149414,
                0.10397684574127197,
                -1.0218638181686401
            ],
            "type" : "VEC3"
        },
        {
            "bufferView" : 14,
            "componentType" : 5126,
            "count" : 1064,
            "type" : "VEC3"
        },
        {
            "bufferView" : 15,
            "componentType" : 5126,
            "count" : 1064,
            "type" : "VEC2"
        },
        {
            "bufferView" : 16,
            "componentType" : 5123,
            "count" : 1830,
            "type" : "SCALAR"
        },
        {
            "bufferView" : 17,
            "componentType" : 5126,
            "count" : 256,
            "max" : [
                1,
                1.8862744569778442,
                1
            ],
            "min" : [
                -1.8409970998764038,
                -1,
                -1
            ],
            "type" : "VEC3"
        },
        {
            "bufferView" : 18,
            "componentType" : 5126,
            "count" : 256,
            "type" : "VEC3"
        },
        {
            "bufferView" : 19,
            "componentType" : 5126,
            "count" : 256,
            "type" : "VEC2"
        },
        {
            "bufferView" : 20,
            "componentType" : 5123,
            "count" : 348,
            "type" : "SCALAR"
        },
        {
            "bufferView" : 21,
            "componentType" : 5126,
            "count" : 24,
            "max" : [
                1,
                1,
                1
            ],
            "min" : [
                -1,
                -1,
                -1
            ],
            "type" : "VEC3"
        },
        {
            "bufferView" : 22,
            "componentType" : 5126,
            "count" : 24,
            "type" : "VEC3"
        },
        {
            "bufferView" : 23,
            "componentType" : 5126,
            "count" : 24,
            "type" : "VEC2"
        },
        {
            "bufferView" : 24,
            "componentType" : 5123,
            "count" : 36,
            "type" : "SCALAR"
        }
    ],
    "bufferViews" : [
        {
            "buffer" : 0,
            "byteLength" : 2736,
            "byteOffset" : 0
        },
        {
            "buffer" : 0,
            "byteLength" : 2736,
            "byteOffset" : 2736
        },
        {
            "buffer" : 0,
            "byteLength" : 1824,
            "byteOffset" : 5472
        },
        {
            "buffer" : 0,
            "byteLength" : 648,
            "byteOffset" : 7296
        },
        {
            "buffer" : 0,
            "byteLength" : 6144,
            "byteOffset" : 7944
        },
        {
            "buffer" : 0,
            "byteLength" : 6144,
            "byteOffset" : 14088
        },
        {
            "buffer" : 0,
            "byteLength" : 4096,
            "byteOffset" : 20232
        },
        {
            "buffer" : 0,
            "byteLength" : 1512,
            "byteOffset" : 24328
        },
        {
            "buffer" : 0,
            "byteLength" : 3888,
            "byteOffset" : 25840
        },
        {
            "buffer" : 0,
            "byteLength" : 3888,
            "byteOffset" : 29728
        },
        {
            "buffer" : 0,
            "byteLength" : 2592,
            "byteOffset" : 33616
        },
        {
            "buffer" : 0,
            "byteLength" : 1272,
            "byteOffset" : 36208
        },
        {
            "buffer" : 0,
            "byteLength" : 411159,
            "byteOffset" : 37480
        },
        {
            "buffer" : 0,
            "byteLength" : 12768,
            "byteOffset" : 448640
        },
        {
            "buffer" : 0,
            "byteLength" : 12768,
            "byteOffset" : 461408
        },
        {
            "buffer" : 0,
            "byteLength" : 8512,
            "byteOffset" : 474176
        },
        {
            "buffer" : 0,
            "byteLength" : 3660,
            "byteOffset" : 482688
        },
        {
            "buffer" : 0,
            "byteLength" : 3072,
            "byteOffset" : 486348
        },
        {
            "buffer" : 0,
            "byteLength" : 3072,
            "byteOffset" : 489420
        },
        {
            "buffer" : 0,
            "byteLength" : 2048,
            "byteOffset" : 492492
        },
        {
            "buffer" : 0,
            "byteLength" : 696,
            "byteOffset" : 494540
        },
        {
            "buffer" : 0,
            "byteLength" : 288,
            "byteOffset" : 495236
        },
        {
            "buffer" : 0,
            "byteLength" : 288,
            "byteOffset" : 495524
        },
        {
            "buffer" : 0,
            "byteLength" : 192,
            "byteOffset" : 495812
        },
        {
            "buffer" : 0,
            "byteLength" : 72,
            "byteOffset" : 496004
        }
    ],
    "samplers" : [
        {
            "magFilter" : 9729,
            "minFilter" : 9987
        }
    ],
    "buffers" : [
        {
            "byteLength" : 496076,
            "uri" : "data:application/octet-stream;base64,"
        }
    ]
}
